<?xml version="1.0" encoding="UTF-8"?>
<svg version="1.1" xmlns="http://www.w3.org/2000/svg" width="1600" height="1600">
<path d="M0 0 C528 0 1056 0 1600 0 C1600 528 1600 1056 1600 1600 C1072 1600 544 1600 0 1600 C0 1072 0 544 0 0 Z " fill="#000000" transform="translate(0,0)"/>
<path d="M0 0 C82.5 0 165 0 250 0 C250 16.5 250 33 250 50 C266.5 50 283 50 300 50 C300 66.5 300 83 300 100 C316.5 100 333 100 350 100 C350 199 350 298 350 400 C333.5 400 317 400 300 400 C300 433 300 466 300 500 C316.5 500 333 500 350 500 C350 599 350 698 350 800 C333.5 800 317 800 300 800 C300 816.5 300 833 300 850 C283.5 850 267 850 250 850 C250 866.5 250 883 250 900 C167.5 900 85 900 0 900 C0 883.5 0 867 0 850 C-16.5 850 -33 850 -50 850 C-50 833.5 -50 817 -50 800 C-66.5 800 -83 800 -100 800 C-100 701 -100 602 -100 500 C-83.5 500 -67 500 -50 500 C-50 467 -50 434 -50 400 C-66.5 400 -83 400 -100 400 C-100 301 -100 202 -100 100 C-83.5 100 -67 100 -50 100 C-50 83.5 -50 67 -50 50 C-33.5 50 -17 50 0 50 C0 33.5 0 17 0 0 Z " fill="#FFFFFF" transform="translate(400,350)"/>
<path d="M0 0 C82.5 0 165 0 250 0 C250 16.5 250 33 250 50 C266.5 50 283 50 300 50 C300 66.5 300 83 300 100 C316.5 100 333 100 350 100 C350 199 350 298 350 400 C317 400 284 400 250 400 C250 301 250 202 250 100 C184 100 118 100 50 100 C50 199 50 298 50 400 C17 400 -16 400 -50 400 C-50 284.5 -50 169 -50 50 C-33.5 50 -17 50 0 50 C0 33.5 0 17 0 0 Z " fill="#FFFFFF" transform="translate(950,850)"/>
<path d="M0 0 C82.5 0 165 0 250 0 C250 16.5 250 33 250 50 C266.5 50 283 50 300 50 C300 66.5 300 83 300 100 C201 100 102 100 0 100 C0 166 0 232 0 300 C99 300 198 300 300 300 C300 316.5 300 333 300 350 C283.5 350 267 350 250 350 C250 366.5 250 383 250 400 C167.5 400 85 400 0 400 C0 383.5 0 367 0 350 C-16.5 350 -33 350 -50 350 C-50 333.5 -50 317 -50 300 C-66.5 300 -83 300 -100 300 C-100 234 -100 168 -100 100 C-83.5 100 -67 100 -50 100 C-50 83.5 -50 67 -50 50 C-33.5 50 -17 50 0 50 C0 33.5 0 17 0 0 Z " fill="#FFFFFF" transform="translate(1000,350)"/>
<path d="M0 0 C49.5 0 99 0 150 0 C150 16.5 150 33 150 50 C166.5 50 183 50 200 50 C200 132.5 200 215 200 300 C117.5 300 35 300 -50 300 C-50 217.5 -50 135 -50 50 C-33.5 50 -17 50 0 50 C0 33.5 0 17 0 0 Z " fill="#000000" transform="translate(450,850)"/>
<path d="M0 0 C82.5 0 165 0 250 0 C250 82.5 250 165 250 250 C233.5 250 217 250 200 250 C200 266.5 200 283 200 300 C150.5 300 101 300 50 300 C50 283.5 50 267 50 250 C33.5 250 17 250 0 250 C0 167.5 0 85 0 0 Z " fill="#000000" transform="translate(400,450)"/>
</svg>
